<svg width="256" height="406" viewBox="0 0 256 406" fill="none" xmlns="http://www.w3.org/2000/svg">
<path d="M151.872 0.103012C160.017 0.134512 168.162 0.1 176.302 0C179.952 28.1055 199.087 43.1805 219.677 60.141C241.027 77.7265 252.472 97.613 254.927 125.365C256.767 146.208 251.117 175.951 237.217 192.249C248.272 141.197 229.342 102.322 177.222 89.186L177.282 243.39C165.157 251.917 153.112 260.566 141.157 269.332C135.502 262.126 128.707 256.646 120.177 253.166C107.432 248.071 93.1814 248.259 80.5734 253.688C67.9309 259.212 58.0299 269.573 53.0864 282.453C47.5124 296.878 47.868 312.923 54.0765 327.088C60.381 341.208 70.476 349.763 84.7145 355.153C92.0225 357.408 99.7194 358.113 107.316 357.233C121.782 355.603 133.062 348.758 142.017 337.458C153.597 346.248 168.202 356.108 180.352 364.353C167.102 384.078 146.872 398.048 123.732 403.448C97.4589 409.413 69.8949 404.748 47.0469 390.473C24.2964 376.053 8.26544 353.128 2.53244 326.808C-3.52406 299.778 1.38294 271.45 16.1784 248.031C30.6829 225.336 53.5649 209.29 79.8429 203.385C103.407 198.287 131.187 201.121 151.767 214.318L151.872 0.103012Z" fill="white"/>
</svg>
